<svg width="218" height="40" viewBox="0 0 218 40" fill="none" xmlns="http://www.w3.org/2000/svg">
<path d="M16.173 1.24222C14.3848 1.82077 14.3979 1.80762 7.0083 9.19724L0 16.1792V16.8367C0 18.2568 1.15709 19.0983 2.45882 18.5986C2.65606 18.5197 3.98408 17.31 5.391 15.9031L7.96817 13.3523L9.00692 14.4042C9.58547 14.9827 10.0983 15.4561 10.1377 15.4561C10.1903 15.4561 10.3612 15.1799 10.5322 14.8381C10.69 14.4962 11.1107 13.8519 11.4657 13.3917C11.8076 12.9315 12.0969 12.5107 12.0969 12.4581C12.0969 12.4187 11.7419 12.0111 11.308 11.5772L10.519 10.7751L13.4381 7.86921C16.2519 5.08167 16.3965 4.95018 17.146 4.7398C18.0664 4.47682 18.9606 4.54256 19.7758 4.92388C20.1308 5.10796 22.5633 7.44845 27.1785 12.0637C33.7792 18.6775 34.0422 18.9668 34.2394 19.6505C34.5156 20.6104 34.5024 21.2152 34.1737 22.1093C33.9239 22.7799 33.5689 23.1875 31.0837 25.699L28.283 28.5391L27.3889 27.6581C26.8893 27.1585 26.4422 26.764 26.3896 26.764C26.337 26.764 25.9952 27.0007 25.6401 27.2768C25.2851 27.5661 24.6408 27.9869 24.2332 28.2235C23.8125 28.4602 23.4443 28.6706 23.418 28.6969C23.3785 28.7232 23.8782 29.2754 24.5225 29.9197L25.7059 31.1031L23.1682 33.6408C21.7612 35.0346 20.5384 36.31 20.4332 36.4941C20.3412 36.6782 20.2623 37.0201 20.2491 37.2568C20.236 38.7426 21.9716 39.5315 23.2208 38.6111C23.4969 38.4007 26.5869 35.3765 30.0713 31.8789C34.4235 27.5004 36.5668 25.2519 36.9349 24.6734C37.7239 23.4374 38 22.4249 38 20.7682C38 19.2035 37.7502 18.2436 37.0138 17.0339C36.7114 16.5474 34.1869 13.9439 29.4927 9.26298C21.9453 1.72873 21.9716 1.75502 20.1308 1.20277C19.1446 0.913498 17.1197 0.926647 16.173 1.24222Z" fill="#1991EB"/>
<path d="M17.5536 10.6566C14.4899 11.3272 12.0048 13.5362 10.9529 16.5341C10.5058 17.7832 10.4006 19.9133 10.703 21.3728C11.0975 23.2663 12.3072 25.1729 13.9114 26.4483C17.1328 28.9991 21.8664 28.9597 25.0878 26.3562C26.0082 25.6068 26.2975 25.1597 26.2975 24.4365C26.2975 23.4109 25.5086 22.6877 24.4041 22.6877C23.8913 22.6877 23.7072 22.7666 23.0892 23.2663C21.8795 24.2524 21.1432 24.568 19.8283 24.6338C17.8034 24.7389 16.1729 23.9895 15.1079 22.4642C14.3979 21.4386 14.1612 20.5445 14.2269 19.0981C14.2664 18.1251 14.3584 17.7438 14.6477 17.1258C15.1342 16.1133 16.1466 15.1272 17.2117 14.6144C18.0138 14.2331 18.1847 14.2068 19.4601 14.2068C20.7487 14.2068 20.9065 14.2331 21.748 14.6275C22.9446 15.2061 23.6152 15.2061 24.2595 14.6538C25.0878 13.9306 25.1273 12.7472 24.3646 11.9978C23.8781 11.5376 22.3792 10.867 21.3141 10.6434C20.2359 10.4199 18.6055 10.4199 17.5536 10.6566Z" fill="#1991EB"/>
<path d="M53.4816 15.9468H56.3002C56.2437 16.8706 55.9891 17.6908 55.5367 18.4072C55.0904 19.1237 54.4651 19.683 53.6607 20.0852C52.8626 20.4874 51.901 20.6885 50.7761 20.6885C49.8962 20.6885 49.1075 20.5377 48.4099 20.236C47.7123 19.9281 47.1153 19.4882 46.6188 18.9163C46.1286 18.3444 45.7547 17.6531 45.497 16.8424C45.2394 16.0317 45.1105 15.1235 45.1105 14.118V13.1659C45.1105 12.1603 45.2425 11.2522 45.5064 10.4415C45.7767 9.62452 46.16 8.93007 46.6565 8.35817C47.1593 7.78627 47.7595 7.34635 48.4571 7.03841C49.1547 6.73046 49.9339 6.57649 50.7949 6.57649C51.9387 6.57649 52.9034 6.78388 53.689 7.19866C54.4808 7.61345 55.0936 8.18535 55.5272 8.91436C55.9671 9.64337 56.2311 10.4729 56.3191 11.4031H53.491C53.4596 10.85 53.3496 10.3818 53.1611 9.99845C52.9725 9.60881 52.6866 9.31657 52.3032 9.12175C51.9262 8.92064 51.4234 8.82009 50.7949 8.82009C50.3236 8.82009 49.9119 8.90807 49.56 9.08404C49.2081 9.26001 48.9127 9.52711 48.6739 9.88533C48.4351 10.2435 48.256 10.696 48.1365 11.2428C48.0234 11.7833 47.9669 12.418 47.9669 13.147V14.118C47.9669 14.8282 48.0203 15.4535 48.1271 15.9939C48.234 16.5281 48.3974 16.9806 48.6173 17.3514C48.8436 17.7159 49.1327 17.9924 49.4846 18.181C49.8428 18.3632 50.2733 18.4544 50.7761 18.4544C51.3668 18.4544 51.8539 18.3601 52.2372 18.1716C52.6206 17.983 52.9128 17.7034 53.1139 17.3326C53.3213 16.9618 53.4439 16.4999 53.4816 15.9468ZM58.1573 6.77446H63.2761C64.3257 6.77446 65.2275 6.93157 65.9816 7.2458C66.7421 7.56003 67.3265 8.02509 67.735 8.64098C68.1435 9.25687 68.3478 10.0142 68.3478 10.9129C68.3478 11.6482 68.2221 12.2798 67.9707 12.8077C67.7256 13.3293 67.3768 13.7661 66.9243 14.118C66.4781 14.4637 65.9534 14.7402 65.35 14.9476L64.4545 15.4189H60.005L59.9861 13.213H63.295C63.7915 13.213 64.2031 13.125 64.5299 12.9491C64.8567 12.7731 65.1018 12.528 65.2652 12.2138C65.4349 11.8995 65.5197 11.535 65.5197 11.1202C65.5197 10.6803 65.438 10.3001 65.2746 9.9796C65.1112 9.65908 64.863 9.41398 64.5299 9.2443C64.1968 9.07462 63.7789 8.98977 63.2761 8.98977H60.9854V20.5H58.1573V6.77446ZM65.8308 20.5L62.7011 14.382L65.6894 14.3631L68.8568 20.368V20.5H65.8308ZM76.1061 9.12175L72.3731 20.5H69.3659L74.4658 6.77446H76.3795L76.1061 9.12175ZM79.2076 20.5L75.4651 9.12175L75.1634 6.77446H77.0959L82.2242 20.5H79.2076ZM79.0379 15.3906V17.6059H71.7886V15.3906H79.0379ZM91.2834 15.9468H94.102C94.0455 16.8706 93.791 17.6908 93.3385 18.4072C92.8923 19.1237 92.2669 19.683 91.4625 20.0852C90.6644 20.4874 89.7028 20.6885 88.5779 20.6885C87.698 20.6885 86.9093 20.5377 86.2117 20.236C85.5141 19.9281 84.9171 19.4882 84.4206 18.9163C83.9304 18.3444 83.5565 17.6531 83.2988 16.8424C83.0412 16.0317 82.9123 15.1235 82.9123 14.118V13.1659C82.9123 12.1603 83.0443 11.2522 83.3083 10.4415C83.5785 9.62452 83.9619 8.93007 84.4583 8.35817C84.9611 7.78627 85.5613 7.34635 86.2589 7.03841C86.9565 6.73046 87.7358 6.57649 88.5967 6.57649C89.7405 6.57649 90.7052 6.78388 91.4908 7.19866C92.2827 7.61345 92.8954 8.18535 93.329 8.91436C93.769 9.64337 94.0329 10.4729 94.1209 11.4031H91.2928C91.2614 10.85 91.1514 10.3818 90.9629 9.99845C90.7744 9.60881 90.4884 9.31657 90.105 9.12175C89.728 8.92064 89.2252 8.82009 88.5967 8.82009C88.1254 8.82009 87.7138 8.90807 87.3618 9.08404C87.0099 9.26001 86.7145 9.52711 86.4757 9.88533C86.2369 10.2435 86.0578 10.696 85.9384 11.2428C85.8252 11.7833 85.7687 12.418 85.7687 13.147V14.118C85.7687 14.8282 85.8221 15.4535 85.9289 15.9939C86.0358 16.5281 86.1992 16.9806 86.4191 17.3514C86.6454 17.7159 86.9345 17.9924 87.2864 18.181C87.6446 18.3632 88.0751 18.4544 88.5779 18.4544C89.1686 18.4544 89.6557 18.3601 90.0391 18.1716C90.4224 17.983 90.7146 17.7034 90.9158 17.3326C91.1231 16.9618 91.2457 16.4999 91.2834 15.9468ZM98.7872 6.77446V20.5H95.9591V6.77446H98.7872ZM107.007 6.77446L101.568 13.5524L98.429 16.9272L97.9199 14.25L100.041 11.3465L103.538 6.77446H107.007ZM103.793 20.5L99.7487 14.1557L101.842 12.4023L107.139 20.5H103.793ZM118.621 9.12175L114.888 20.5H111.881L116.981 6.77446H118.895L118.621 9.12175ZM121.723 20.5L117.98 9.12175L117.679 6.77446H119.611L124.739 20.5H121.723ZM121.553 15.3906V17.6059H114.304V15.3906H121.553ZM130.226 20.5H127.238L127.256 18.2941H130.226C130.967 18.2941 131.593 18.1276 132.102 17.7945C132.611 17.4551 132.994 16.9618 133.252 16.3145C133.516 15.6672 133.648 14.8847 133.648 13.9672V13.2979C133.648 12.594 133.572 11.975 133.422 11.4408C133.277 10.9066 133.06 10.4572 132.771 10.0927C132.482 9.72821 132.127 9.45483 131.706 9.27258C131.285 9.08404 130.801 8.98977 130.254 8.98977H127.181V6.77446H130.254C131.172 6.77446 132.011 6.93157 132.771 7.2458C133.538 7.55374 134.201 7.99681 134.76 8.57499C135.32 9.15317 135.75 9.84448 136.052 10.6489C136.36 11.447 136.514 12.3363 136.514 13.3167V13.9672C136.514 14.9413 136.36 15.8305 136.052 16.635C135.75 17.4394 135.32 18.1307 134.76 18.7089C134.207 19.2808 133.544 19.7239 132.771 20.0381C132.004 20.346 131.156 20.5 130.226 20.5ZM128.84 6.77446V20.5H126.012V6.77446H128.84ZM139.86 6.77446H142.255L145.78 16.8518L149.306 6.77446H151.7L146.742 20.5H144.819L139.86 6.77446ZM138.569 6.77446H140.954L141.387 16.5973V20.5H138.569V6.77446ZM150.607 6.77446H153.001V20.5H150.173V16.5973L150.607 6.77446ZM158.488 6.77446V20.5H155.669V6.77446H158.488ZM168.282 16.9084C168.282 16.6633 168.244 16.4433 168.169 16.2485C168.1 16.0474 167.968 15.8651 167.773 15.7017C167.578 15.532 167.305 15.3655 166.953 15.2021C166.601 15.0387 166.145 14.869 165.586 14.693C164.964 14.4919 164.373 14.2657 163.814 14.0143C163.261 13.7629 162.771 13.4707 162.343 13.1376C161.922 12.7982 161.589 12.4054 161.344 11.9592C161.105 11.513 160.986 10.9946 160.986 10.4038C160.986 9.83191 161.111 9.31343 161.363 8.84837C161.614 8.37703 161.966 7.97481 162.419 7.64173C162.871 7.30236 163.405 7.04155 164.021 6.8593C164.643 6.67704 165.325 6.58592 166.067 6.58592C167.079 6.58592 167.962 6.76817 168.716 7.13268C169.47 7.49718 170.054 7.99681 170.469 8.63155C170.89 9.2663 171.101 9.99217 171.101 10.8092H168.292C168.292 10.4069 168.207 10.055 168.037 9.75335C167.874 9.44541 167.622 9.20345 167.283 9.02748C166.95 8.85151 166.529 8.76353 166.02 8.76353C165.53 8.76353 165.121 8.83894 164.794 8.98977C164.467 9.13432 164.222 9.33228 164.059 9.58367C163.896 9.82877 163.814 10.1053 163.814 10.4132C163.814 10.6458 163.87 10.8563 163.984 11.0448C164.103 11.2334 164.279 11.4093 164.511 11.5727C164.744 11.7361 165.03 11.8901 165.369 12.0347C165.709 12.1792 166.101 12.3206 166.548 12.4589C167.296 12.6851 167.952 12.9396 168.518 13.2224C169.09 13.5053 169.567 13.8226 169.951 14.1746C170.334 14.5265 170.623 14.9256 170.818 15.3718C171.013 15.818 171.11 16.3239 171.11 16.8895C171.11 17.4865 170.994 18.0207 170.761 18.4921C170.529 18.9634 170.193 19.3625 169.753 19.6893C169.313 20.0161 168.788 20.2643 168.179 20.434C167.569 20.6037 166.887 20.6885 166.133 20.6885C165.454 20.6885 164.785 20.6006 164.125 20.4246C163.465 20.2423 162.865 19.969 162.324 19.6044C161.79 19.2399 161.363 18.7749 161.042 18.2093C160.722 17.6437 160.562 16.9743 160.562 16.2013H163.399C163.399 16.6287 163.465 16.9901 163.597 17.2854C163.729 17.5808 163.914 17.8196 164.153 18.0019C164.398 18.1841 164.687 18.3161 165.02 18.3978C165.36 18.4795 165.731 18.5204 166.133 18.5204C166.623 18.5204 167.025 18.4512 167.34 18.313C167.66 18.1747 167.896 17.983 168.047 17.7379C168.204 17.4928 168.282 17.2163 168.282 16.9084ZM180.179 16.9084C180.179 16.6633 180.141 16.4433 180.066 16.2485C179.997 16.0474 179.865 15.8651 179.67 15.7017C179.475 15.532 179.202 15.3655 178.85 15.2021C178.498 15.0387 178.042 14.869 177.483 14.693C176.861 14.4919 176.27 14.2657 175.711 14.0143C175.158 13.7629 174.667 13.4707 174.24 13.1376C173.819 12.7982 173.486 12.4054 173.241 11.9592C173.002 11.513 172.883 10.9946 172.883 10.4038C172.883 9.83191 173.008 9.31343 173.26 8.84837C173.511 8.37703 173.863 7.97481 174.315 7.64173C174.768 7.30236 175.302 7.04155 175.918 6.8593C176.54 6.67704 177.222 6.58592 177.964 6.58592C178.975 6.58592 179.858 6.76817 180.613 7.13268C181.367 7.49718 181.951 7.99681 182.366 8.63155C182.787 9.2663 182.998 9.99217 182.998 10.8092H180.188C180.188 10.4069 180.104 10.055 179.934 9.75335C179.77 9.44541 179.519 9.20345 179.18 9.02748C178.847 8.85151 178.426 8.76353 177.916 8.76353C177.426 8.76353 177.018 8.83894 176.691 8.98977C176.364 9.13432 176.119 9.33228 175.956 9.58367C175.792 9.82877 175.711 10.1053 175.711 10.4132C175.711 10.6458 175.767 10.8563 175.88 11.0448C176 11.2334 176.176 11.4093 176.408 11.5727C176.641 11.7361 176.927 11.8901 177.266 12.0347C177.605 12.1792 177.998 12.3206 178.444 12.4589C179.192 12.6851 179.849 12.9396 180.415 13.2224C180.986 13.5053 181.464 13.8226 181.847 14.1746C182.231 14.5265 182.52 14.9256 182.715 15.3718C182.91 15.818 183.007 16.3239 183.007 16.8895C183.007 17.4865 182.891 18.0207 182.658 18.4921C182.426 18.9634 182.089 19.3625 181.65 19.6893C181.21 20.0161 180.685 20.2643 180.075 20.434C179.466 20.6037 178.784 20.6885 178.03 20.6885C177.351 20.6885 176.682 20.6006 176.022 20.4246C175.362 20.2423 174.762 19.969 174.221 19.6044C173.687 19.2399 173.26 18.7749 172.939 18.2093C172.619 17.6437 172.458 16.9743 172.458 16.2013H175.296C175.296 16.6287 175.362 16.9901 175.494 17.2854C175.626 17.5808 175.811 17.8196 176.05 18.0019C176.295 18.1841 176.584 18.3161 176.917 18.3978C177.257 18.4795 177.627 18.5204 178.03 18.5204C178.52 18.5204 178.922 18.4512 179.236 18.313C179.557 18.1747 179.792 17.983 179.943 17.7379C180.1 17.4928 180.179 17.2163 180.179 16.9084ZM187.937 6.77446V20.5H185.119V6.77446H187.937ZM201.861 13.3167V13.9672C201.861 15.0104 201.719 15.9468 201.437 16.7764C201.154 17.6059 200.755 18.313 200.239 18.8974C199.724 19.4756 199.108 19.9187 198.392 20.2266C197.682 20.5346 196.893 20.6885 196.026 20.6885C195.165 20.6885 194.376 20.5346 193.659 20.2266C192.949 19.9187 192.333 19.4756 191.812 18.8974C191.29 18.313 190.885 17.6059 190.596 16.7764C190.313 15.9468 190.171 15.0104 190.171 13.9672V13.3167C190.171 12.2672 190.313 11.3308 190.596 10.5075C190.878 9.67794 191.278 8.97092 191.793 8.38645C192.314 7.80199 192.93 7.35578 193.641 7.04783C194.357 6.73989 195.146 6.58592 196.007 6.58592C196.874 6.58592 197.663 6.73989 198.373 7.04783C199.089 7.35578 199.705 7.80199 200.22 8.38645C200.742 8.97092 201.144 9.67794 201.427 10.5075C201.716 11.3308 201.861 12.2672 201.861 13.3167ZM199.004 13.9672V13.2979C199.004 12.5688 198.938 11.9278 198.806 11.3748C198.674 10.8217 198.48 10.3567 198.222 9.9796C197.964 9.60252 197.65 9.31971 197.279 9.13118C196.909 8.93635 196.484 8.83894 196.007 8.83894C195.529 8.83894 195.105 8.93635 194.734 9.13118C194.37 9.31971 194.058 9.60252 193.801 9.9796C193.549 10.3567 193.358 10.8217 193.226 11.3748C193.094 11.9278 193.028 12.5688 193.028 13.2979V13.9672C193.028 14.6899 193.094 15.3309 193.226 15.8903C193.358 16.4433 193.553 16.9115 193.81 17.2949C194.068 17.6719 194.382 17.9579 194.753 18.1527C195.124 18.3475 195.548 18.4449 196.026 18.4449C196.503 18.4449 196.927 18.3475 197.298 18.1527C197.669 17.9579 197.98 17.6719 198.231 17.2949C198.483 16.9115 198.674 16.4433 198.806 15.8903C198.938 15.3309 199.004 14.6899 199.004 13.9672ZM215.068 6.77446V20.5H212.24L206.725 11.2994V20.5H203.897V6.77446H206.725L212.249 15.9845V6.77446H215.068Z" fill="#1991EB"/>
<path d="M49.2167 32.1234H50.5811C50.5447 32.6064 50.4107 33.0347 50.1792 33.4085C49.9477 33.7789 49.6252 34.07 49.2117 34.2817C48.7982 34.4934 48.2971 34.5992 47.7084 34.5992C47.2552 34.5992 46.8467 34.5198 46.4829 34.3611C46.1223 34.199 45.8131 33.9691 45.5551 33.6714C45.3004 33.3704 45.1052 33.0099 44.9696 32.5898C44.834 32.1664 44.7662 31.6918 44.7662 31.1659V30.6151C44.7662 30.0892 44.8356 29.6146 44.9746 29.1912C45.1135 28.7678 45.312 28.4073 45.57 28.1096C45.8313 27.8086 46.1438 27.577 46.5077 27.415C46.8748 27.2529 47.285 27.1718 47.7381 27.1718C48.3269 27.1718 48.8247 27.281 49.2316 27.4993C49.6384 27.7143 49.9543 28.0103 50.1792 28.3874C50.4041 28.7645 50.5397 29.1978 50.586 29.6873H49.2216C49.1952 29.383 49.129 29.125 49.0232 28.9133C48.9206 28.7016 48.7652 28.5412 48.5568 28.4321C48.3517 28.3196 48.0788 28.2634 47.7381 28.2634C47.4735 28.2634 47.2403 28.313 47.0386 28.4122C46.8401 28.5114 46.6747 28.6603 46.5424 28.8588C46.4101 29.0539 46.3109 29.2987 46.2447 29.5931C46.1786 29.8841 46.1455 30.2215 46.1455 30.6052V31.1659C46.1455 31.533 46.1753 31.8621 46.2348 32.1532C46.2943 32.4443 46.387 32.6907 46.5126 32.8925C46.6383 33.0942 46.8004 33.248 46.9989 33.3539C47.1973 33.4597 47.4338 33.5127 47.7084 33.5127C48.0424 33.5127 48.3137 33.4597 48.5221 33.3539C48.7337 33.248 48.8942 33.0926 49.0033 32.8875C49.1158 32.6824 49.1869 32.4277 49.2167 32.1234ZM51.3055 31.8704V31.7662C51.3055 31.3726 51.3617 31.0104 51.4742 30.6796C51.5866 30.3456 51.7504 30.0561 51.9654 29.8114C52.1804 29.5666 52.4433 29.3764 52.7542 29.2408C53.0652 29.1019 53.4191 29.0324 53.816 29.0324C54.2195 29.0324 54.5768 29.1019 54.8877 29.2408C55.2019 29.3764 55.4665 29.5666 55.6815 29.8114C55.8965 30.0561 56.0603 30.3456 56.1727 30.6796C56.2852 31.0104 56.3414 31.3726 56.3414 31.7662V31.8704C56.3414 32.2607 56.2852 32.6229 56.1727 32.957C56.0603 33.2877 55.8965 33.5772 55.6815 33.8252C55.4665 34.07 55.2036 34.2602 54.8926 34.3958C54.5817 34.5314 54.2261 34.5992 53.8259 34.5992C53.429 34.5992 53.0734 34.5314 52.7592 34.3958C52.445 34.2602 52.1804 34.07 51.9654 33.8252C51.7504 33.5772 51.5866 33.2877 51.4742 32.957C51.3617 32.6229 51.3055 32.2607 51.3055 31.8704ZM52.6153 31.7662V31.8704C52.6153 32.1052 52.6385 32.3252 52.6848 32.5303C52.7311 32.7354 52.8022 32.9156 52.8981 33.0711C52.994 33.2265 53.1181 33.3489 53.2702 33.4382C53.4257 33.5242 53.6109 33.5672 53.8259 33.5672C54.0376 33.5672 54.2195 33.5242 54.3717 33.4382C54.5238 33.3489 54.6479 33.2265 54.7438 33.0711C54.843 32.9156 54.9158 32.7354 54.9621 32.5303C55.0084 32.3252 55.0316 32.1052 55.0316 31.8704V31.7662C55.0316 31.5347 55.0084 31.318 54.9621 31.1162C54.9158 30.9112 54.843 30.7309 54.7438 30.5754C54.6479 30.4167 54.5222 30.2926 54.3667 30.2033C54.2146 30.1107 54.031 30.0644 53.816 30.0644C53.6043 30.0644 53.4224 30.1107 53.2702 30.2033C53.1181 30.2926 52.994 30.4167 52.8981 30.5754C52.8022 30.7309 52.7311 30.9112 52.6848 31.1162C52.6385 31.318 52.6153 31.5347 52.6153 31.7662ZM58.5791 30.2777V34.5H57.2692V29.1316H58.4997L58.5791 30.2777ZM58.3707 31.6223H57.9837C57.987 31.232 58.0399 30.8781 58.1424 30.5606C58.245 30.243 58.3889 29.9701 58.5741 29.7419C58.7626 29.5137 58.9859 29.3384 59.2439 29.216C59.5019 29.0936 59.7897 29.0324 60.1072 29.0324C60.3652 29.0324 60.5984 29.0688 60.8068 29.1416C61.0152 29.2143 61.1938 29.3301 61.3426 29.4889C61.4948 29.6476 61.6105 29.856 61.6899 30.114C61.7726 30.3687 61.814 30.6829 61.814 31.0567V34.5H60.4942V31.0468C60.4942 30.802 60.4578 30.6085 60.385 30.4663C60.3156 30.3241 60.213 30.2232 60.0774 30.1636C59.9451 30.1041 59.7814 30.0743 59.5862 30.0743C59.3845 30.0743 59.2075 30.1157 59.0554 30.1984C58.9065 30.2777 58.7808 30.3886 58.6783 30.5308C58.5791 30.673 58.503 30.8367 58.4501 31.022C58.3971 31.2072 58.3707 31.4073 58.3707 31.6223ZM64.255 30.2777V34.5H62.9452V29.1316H64.1756L64.255 30.2777ZM64.0466 31.6223H63.6596C63.663 31.232 63.7159 30.8781 63.8184 30.5606C63.921 30.243 64.0648 29.9701 64.2501 29.7419C64.4386 29.5137 64.6619 29.3384 64.9199 29.216C65.1779 29.0936 65.4656 29.0324 65.7832 29.0324C66.0412 29.0324 66.2744 29.0688 66.4828 29.1416C66.6911 29.2143 66.8698 29.3301 67.0186 29.4889C67.1708 29.6476 67.2865 29.856 67.3659 30.114C67.4486 30.3687 67.4899 30.6829 67.4899 31.0567V34.5H66.1702V31.0468C66.1702 30.802 66.1338 30.6085 66.061 30.4663C65.9916 30.3241 65.889 30.2232 65.7534 30.1636C65.6211 30.1041 65.4574 30.0743 65.2622 30.0743C65.0605 30.0743 64.8835 30.1157 64.7313 30.1984C64.5825 30.2777 64.4568 30.3886 64.3543 30.5308C64.255 30.673 64.179 30.8367 64.126 31.022C64.0731 31.2072 64.0466 31.4073 64.0466 31.6223ZM71.0573 34.5992C70.6504 34.5992 70.2849 34.5331 69.9608 34.4008C69.6366 34.2685 69.3604 34.0849 69.1322 33.85C68.9073 33.6119 68.7336 33.3357 68.6112 33.0215C68.4922 32.7039 68.4326 32.3632 68.4326 31.9994V31.8009C68.4326 31.3875 68.4922 31.0121 68.6112 30.6747C68.7303 30.334 68.899 30.0412 69.1173 29.7965C69.3356 29.5517 69.5969 29.3632 69.9012 29.2309C70.2055 29.0986 70.5413 29.0324 70.9084 29.0324C71.2888 29.0324 71.6245 29.0969 71.9156 29.2259C72.2067 29.3516 72.4498 29.5302 72.645 29.7617C72.8401 29.9933 72.9873 30.2711 73.0865 30.5953C73.1858 30.9161 73.2354 31.2717 73.2354 31.662V32.2127H69.028V31.3097H71.9454V31.2105C71.9388 31.0021 71.8991 30.8119 71.8263 30.6399C71.7535 30.4646 71.6411 30.3257 71.4889 30.2232C71.3368 30.1173 71.14 30.0644 70.8985 30.0644C70.7034 30.0644 70.533 30.1074 70.3875 30.1934C70.2452 30.2761 70.1262 30.3952 70.0302 30.5506C69.9376 30.7028 69.8682 30.8847 69.8219 31.0964C69.7755 31.3081 69.7524 31.5429 69.7524 31.8009V31.9994C69.7524 32.2243 69.7822 32.4327 69.8417 32.6245C69.9045 32.8164 69.9955 32.9834 70.1146 33.1257C70.237 33.2646 70.3825 33.3737 70.5512 33.4531C70.7232 33.5292 70.9184 33.5672 71.1367 33.5672C71.4112 33.5672 71.6593 33.5143 71.8809 33.4085C72.1058 33.2993 72.301 33.1389 72.4663 32.9272L73.1262 33.6119C73.0138 33.7773 72.8616 33.936 72.6698 34.0882C72.4812 34.2403 72.253 34.3644 71.9851 34.4603C71.7172 34.5529 71.4079 34.5992 71.0573 34.5992ZM76.3165 33.5672C76.5017 33.5672 76.6671 33.5309 76.8126 33.4581C76.9582 33.3853 77.0739 33.2828 77.1599 33.1505C77.2492 33.0182 77.2972 32.8644 77.3038 32.689H78.5392C78.5326 33.0529 78.4301 33.3787 78.2316 33.6665C78.0332 33.9542 77.7686 34.1825 77.4378 34.3512C77.1103 34.5165 76.7432 34.5992 76.3363 34.5992C75.9229 34.5992 75.5623 34.5298 75.2547 34.3908C74.9471 34.2519 74.6908 34.0584 74.4857 33.8103C74.2839 33.5623 74.1318 33.2745 74.0292 32.947C73.93 32.6196 73.8804 32.269 73.8804 31.8952V31.7364C73.8804 31.3627 73.93 31.0121 74.0292 30.6846C74.1318 30.3571 74.2839 30.0694 74.4857 29.8213C74.6908 29.5732 74.9471 29.3797 75.2547 29.2408C75.5623 29.1019 75.9212 29.0324 76.3314 29.0324C76.7647 29.0324 77.1451 29.1168 77.4725 29.2854C77.8033 29.4541 78.0613 29.6923 78.2465 29.9999C78.4351 30.3075 78.5326 30.6697 78.5392 31.0865H77.3038C77.2972 30.8946 77.2542 30.7226 77.1748 30.5705C77.0954 30.4183 76.983 30.2959 76.8374 30.2033C76.6919 30.1107 76.5149 30.0644 76.3066 30.0644C76.0849 30.0644 75.8997 30.1107 75.7509 30.2033C75.6053 30.2959 75.4912 30.4233 75.4085 30.5854C75.3291 30.7441 75.2729 30.9227 75.2398 31.1212C75.2101 31.3164 75.1952 31.5214 75.1952 31.7364V31.8952C75.1952 32.1135 75.2101 32.3219 75.2398 32.5204C75.2729 32.7188 75.3291 32.8974 75.4085 33.0562C75.4912 33.2117 75.6053 33.3357 75.7509 33.4283C75.8997 33.5209 76.0883 33.5672 76.3165 33.5672ZM81.9528 29.1316V30.0743H78.8766V29.1316H81.9528ZM79.7002 27.8119H81.015V32.952C81.015 33.1108 81.0365 33.2332 81.0795 33.3192C81.1225 33.4052 81.187 33.463 81.273 33.4928C81.359 33.5226 81.4616 33.5375 81.5807 33.5375C81.6667 33.5375 81.746 33.5325 81.8188 33.5226C81.8916 33.5127 81.9528 33.5027 82.0024 33.4928L82.0073 34.4752C81.8982 34.5116 81.7742 34.5413 81.6352 34.5645C81.4996 34.5877 81.3458 34.5992 81.1738 34.5992C80.8794 34.5992 80.6214 34.5496 80.3998 34.4504C80.1782 34.3478 80.0062 34.1841 79.8838 33.9592C79.7614 33.731 79.7002 33.43 79.7002 33.0562V27.8119ZM84.0614 33.3192L84.0515 34.2271C84.0515 34.581 83.9638 34.9399 83.7885 35.3038C83.6132 35.6676 83.3866 35.9686 83.1088 36.2068L82.4142 35.8247C82.5035 35.6759 82.5862 35.5254 82.6623 35.3732C82.7417 35.2211 82.8045 35.0557 82.8508 34.8771C82.9004 34.7018 82.9252 34.505 82.9252 34.2867V33.3192H84.0614ZM92.0743 32.1234H93.4387C93.4023 32.6064 93.2683 33.0347 93.0368 33.4085C92.8053 33.7789 92.4828 34.07 92.0693 34.2817C91.6558 34.4934 91.1547 34.5992 90.566 34.5992C90.1128 34.5992 89.7043 34.5198 89.3405 34.3611C88.9799 34.199 88.6707 33.9691 88.4127 33.6714C88.158 33.3704 87.9628 33.0099 87.8272 32.5898C87.6916 32.1664 87.6238 31.6918 87.6238 31.1659V30.6151C87.6238 30.0892 87.6932 29.6146 87.8322 29.1912C87.9711 28.7678 88.1696 28.4073 88.4276 28.1096C88.6889 27.8086 89.0014 27.577 89.3653 27.415C89.7324 27.2529 90.1426 27.1718 90.5957 27.1718C91.1845 27.1718 91.6823 27.281 92.0892 27.4993C92.496 27.7143 92.8119 28.0103 93.0368 28.3874C93.2617 28.7645 93.3973 29.1978 93.4436 29.6873H92.0792C92.0528 29.383 91.9866 29.125 91.8808 28.9133C91.7782 28.7016 91.6228 28.5412 91.4144 28.4321C91.2093 28.3196 90.9364 28.2634 90.5957 28.2634C90.3311 28.2634 90.0979 28.313 89.8962 28.4122C89.6977 28.5114 89.5323 28.6603 89.4 28.8588C89.2677 29.0539 89.1685 29.2987 89.1023 29.5931C89.0362 29.8841 89.0031 30.2215 89.0031 30.6052V31.1659C89.0031 31.533 89.0329 31.8621 89.0924 32.1532C89.1519 32.4443 89.2445 32.6907 89.3702 32.8925C89.4959 33.0942 89.658 33.248 89.8565 33.3539C90.0549 33.4597 90.2914 33.5127 90.566 33.5127C90.9 33.5127 91.1713 33.4597 91.3797 33.3539C91.5913 33.248 91.7518 33.0926 91.8609 32.8875C91.9734 32.6824 92.0445 32.4277 92.0743 32.1234ZM94.1631 31.8704V31.7662C94.1631 31.3726 94.2193 31.0104 94.3318 30.6796C94.4442 30.3456 94.608 30.0561 94.823 29.8114C95.0379 29.5666 95.3009 29.3764 95.6118 29.2408C95.9228 29.1019 96.2767 29.0324 96.6736 29.0324C97.0771 29.0324 97.4344 29.1019 97.7453 29.2408C98.0595 29.3764 98.3241 29.5666 98.5391 29.8114C98.7541 30.0561 98.9179 30.3456 99.0303 30.6796C99.1428 31.0104 99.199 31.3726 99.199 31.7662V31.8704C99.199 32.2607 99.1428 32.6229 99.0303 32.957C98.9179 33.2877 98.7541 33.5772 98.5391 33.8252C98.3241 34.07 98.0612 34.2602 97.7502 34.3958C97.4393 34.5314 97.0837 34.5992 96.6835 34.5992C96.2866 34.5992 95.931 34.5314 95.6168 34.3958C95.3026 34.2602 95.0379 34.07 94.823 33.8252C94.608 33.5772 94.4442 33.2877 94.3318 32.957C94.2193 32.6229 94.1631 32.2607 94.1631 31.8704ZM95.4729 31.7662V31.8704C95.4729 32.1052 95.4961 32.3252 95.5424 32.5303C95.5887 32.7354 95.6598 32.9156 95.7557 33.0711C95.8516 33.2265 95.9757 33.3489 96.1278 33.4382C96.2833 33.5242 96.4685 33.5672 96.6835 33.5672C96.8952 33.5672 97.0771 33.5242 97.2293 33.4382C97.3814 33.3489 97.5055 33.2265 97.6014 33.0711C97.7006 32.9156 97.7734 32.7354 97.8197 32.5303C97.866 32.3252 97.8892 32.1052 97.8892 31.8704V31.7662C97.8892 31.5347 97.866 31.318 97.8197 31.1162C97.7734 30.9112 97.7006 30.7309 97.6014 30.5754C97.5055 30.4167 97.3798 30.2926 97.2243 30.2033C97.0722 30.1107 96.8886 30.0644 96.6736 30.0644C96.4619 30.0644 96.28 30.1107 96.1278 30.2033C95.9757 30.2926 95.8516 30.4167 95.7557 30.5754C95.6598 30.7309 95.5887 30.9112 95.5424 31.1162C95.4961 31.318 95.4729 31.5347 95.4729 31.7662ZM101.437 30.2777V34.5H100.127V29.1316H101.357L101.437 30.2777ZM101.228 31.6223H100.841C100.845 31.232 100.898 30.8781 101 30.5606C101.103 30.243 101.246 29.9701 101.432 29.7419C101.62 29.5137 101.843 29.3384 102.101 29.216C102.359 29.0936 102.647 29.0324 102.965 29.0324C103.223 29.0324 103.456 29.0688 103.664 29.1416C103.873 29.2143 104.051 29.3301 104.2 29.4889C104.352 29.6476 104.468 29.856 104.548 30.114C104.63 30.3687 104.672 30.6829 104.672 31.0567V34.5H103.352V31.0468C103.352 30.802 103.315 30.6085 103.243 30.4663C103.173 30.3241 103.071 30.2232 102.935 30.1636C102.803 30.1041 102.639 30.0743 102.444 30.0743C102.242 30.0743 102.065 30.1157 101.913 30.1984C101.764 30.2777 101.638 30.3886 101.536 30.5308C101.437 30.673 101.361 30.8367 101.308 31.022C101.255 31.2072 101.228 31.4073 101.228 31.6223ZM107.609 33.5077L108.859 29.1316H110.228L108.388 34.5H107.554L107.609 33.5077ZM106.696 29.1316L107.961 33.5176L108.006 34.5H107.167L105.322 29.1316H106.696ZM113.26 34.5992C112.853 34.5992 112.488 34.5331 112.163 34.4008C111.839 34.2685 111.563 34.0849 111.335 33.85C111.11 33.6119 110.936 33.3357 110.814 33.0215C110.695 32.7039 110.635 32.3632 110.635 31.9994V31.8009C110.635 31.3875 110.695 31.0121 110.814 30.6747C110.933 30.334 111.102 30.0412 111.32 29.7965C111.538 29.5517 111.8 29.3632 112.104 29.2309C112.408 29.0986 112.744 29.0324 113.111 29.0324C113.491 29.0324 113.827 29.0969 114.118 29.2259C114.409 29.3516 114.652 29.5302 114.848 29.7617C115.043 29.9933 115.19 30.2711 115.289 30.5953C115.388 30.9161 115.438 31.2717 115.438 31.662V32.2127H111.231V31.3097H114.148V31.2105C114.141 31.0021 114.102 30.8119 114.029 30.6399C113.956 30.4646 113.844 30.3257 113.692 30.2232C113.539 30.1173 113.343 30.0644 113.101 30.0644C112.906 30.0644 112.736 30.1074 112.59 30.1934C112.448 30.2761 112.329 30.3952 112.233 30.5506C112.14 30.7028 112.071 30.8847 112.025 31.0964C111.978 31.3081 111.955 31.5429 111.955 31.8009V31.9994C111.955 32.2243 111.985 32.4327 112.044 32.6245C112.107 32.8164 112.198 32.9834 112.317 33.1257C112.44 33.2646 112.585 33.3737 112.754 33.4531C112.926 33.5292 113.121 33.5672 113.339 33.5672C113.614 33.5672 113.862 33.5143 114.084 33.4085C114.308 33.2993 114.504 33.1389 114.669 32.9272L115.329 33.6119C115.216 33.7773 115.064 33.936 114.872 34.0882C114.684 34.2403 114.456 34.3644 114.188 34.4603C113.92 34.5529 113.611 34.5992 113.26 34.5992ZM117.626 30.2281V34.5H116.316V29.1316H117.557L117.626 30.2281ZM119.258 29.0969L119.239 30.3174C119.166 30.3042 119.083 30.2943 118.991 30.2877C118.901 30.2811 118.817 30.2777 118.737 30.2777C118.536 30.2777 118.359 30.3059 118.207 30.3621C118.054 30.415 117.927 30.4927 117.825 30.5953C117.725 30.6978 117.649 30.8235 117.596 30.9724C117.543 31.1179 117.514 31.2833 117.507 31.4685L117.224 31.4338C117.224 31.0931 117.259 30.7772 117.328 30.4861C117.398 30.1951 117.499 29.9404 117.631 29.7221C117.763 29.5038 117.929 29.3351 118.127 29.216C118.329 29.0936 118.561 29.0324 118.822 29.0324C118.895 29.0324 118.972 29.039 119.055 29.0523C119.141 29.0622 119.209 29.0771 119.258 29.0969ZM122.766 29.1316V30.0743H119.69V29.1316H122.766ZM120.514 27.8119H121.828V32.952C121.828 33.1108 121.85 33.2332 121.893 33.3192C121.936 33.4052 122 33.463 122.086 33.4928C122.172 33.5226 122.275 33.5375 122.394 33.5375C122.48 33.5375 122.559 33.5325 122.632 33.5226C122.705 33.5127 122.766 33.5027 122.816 33.4928L122.821 34.4752C122.712 34.5116 122.588 34.5413 122.449 34.5645C122.313 34.5877 122.159 34.5992 121.987 34.5992C121.693 34.5992 121.435 34.5496 121.213 34.4504C120.992 34.3478 120.82 34.1841 120.697 33.9592C120.575 33.731 120.514 33.43 120.514 33.0562V27.8119ZM129.127 33.3589V30.8831C129.127 30.7011 129.095 30.544 129.033 30.4117C128.97 30.2794 128.874 30.1769 128.745 30.1041C128.616 30.0313 128.452 29.9949 128.254 29.9949C128.078 29.9949 127.925 30.0247 127.792 30.0842C127.663 30.1438 127.564 30.2281 127.495 30.3373C127.425 30.4431 127.39 30.5655 127.39 30.7044H126.076C126.076 30.4828 126.128 30.2728 126.234 30.0743C126.34 29.8726 126.491 29.6939 126.686 29.5385C126.884 29.3797 127.121 29.2557 127.395 29.1664C127.673 29.0771 127.984 29.0324 128.328 29.0324C128.735 29.0324 129.097 29.1019 129.415 29.2408C129.736 29.3764 129.987 29.5815 130.169 29.856C130.354 30.1306 130.447 30.4762 130.447 30.893V33.2348C130.447 33.5027 130.463 33.7326 130.496 33.9245C130.533 34.113 130.586 34.2767 130.655 34.4157V34.5H129.32C129.258 34.3644 129.21 34.1924 129.177 33.984C129.143 33.7723 129.127 33.5639 129.127 33.3589ZM129.31 31.2304L129.32 32.0093H128.492C128.287 32.0093 128.106 32.0308 127.951 32.0738C127.796 32.1135 127.668 32.173 127.569 32.2524C127.47 32.3285 127.395 32.4211 127.346 32.5303C127.296 32.6361 127.271 32.7569 127.271 32.8925C127.271 33.0248 127.301 33.1439 127.361 33.2497C127.423 33.3555 127.513 33.4399 127.629 33.5027C127.748 33.5623 127.887 33.592 128.045 33.592C128.277 33.592 128.479 33.5457 128.651 33.4531C128.823 33.3572 128.957 33.2414 129.052 33.1058C129.148 32.9702 129.2 32.8412 129.206 32.7188L129.583 33.2844C129.537 33.42 129.468 33.5639 129.375 33.7161C129.282 33.8682 129.163 34.0105 129.018 34.1428C128.872 34.2751 128.697 34.3842 128.492 34.4702C128.287 34.5562 128.049 34.5992 127.777 34.5992C127.43 34.5992 127.119 34.5298 126.845 34.3908C126.57 34.2519 126.353 34.0617 126.195 33.8203C126.036 33.5788 125.956 33.3043 125.956 32.9967C125.956 32.7122 126.009 32.4608 126.115 32.2425C126.221 32.0242 126.378 31.8406 126.587 31.6918C126.795 31.5396 127.053 31.4255 127.361 31.3494C127.672 31.2701 128.027 31.2304 128.427 31.2304H129.31ZM132.913 30.2777V34.5H131.603V29.1316H132.833L132.913 30.2777ZM132.704 31.6223H132.317C132.32 31.232 132.373 30.8781 132.476 30.5606C132.578 30.243 132.722 29.9701 132.908 29.7419C133.096 29.5137 133.319 29.3384 133.577 29.216C133.835 29.0936 134.123 29.0324 134.441 29.0324C134.699 29.0324 134.932 29.0688 135.14 29.1416C135.349 29.2143 135.527 29.3301 135.676 29.4889C135.828 29.6476 135.944 29.856 136.023 30.114C136.106 30.3687 136.147 30.6829 136.147 31.0567V34.5H134.828V31.0468C134.828 30.802 134.791 30.6085 134.719 30.4663C134.649 30.3241 134.547 30.2232 134.411 30.1636C134.279 30.1041 134.115 30.0743 133.92 30.0743C133.718 30.0743 133.541 30.1157 133.389 30.1984C133.24 30.2777 133.114 30.3886 133.012 30.5308C132.913 30.673 132.836 30.8367 132.784 31.022C132.731 31.2072 132.704 31.4073 132.704 31.6223ZM140.523 33.3589V26.8791H141.843V34.5H140.652L140.523 33.3589ZM137.075 31.8803V31.7761C137.075 31.366 137.122 30.9939 137.214 30.6598C137.31 30.3224 137.449 30.033 137.631 29.7915C137.813 29.5501 138.033 29.3632 138.291 29.2309C138.552 29.0986 138.848 29.0324 139.179 29.0324C139.5 29.0324 139.779 29.0969 140.017 29.2259C140.259 29.3549 140.464 29.5385 140.633 29.7766C140.805 30.0148 140.942 30.2976 141.044 30.6251C141.147 30.9492 141.221 31.3064 141.268 31.6967V31.9795C141.221 32.3599 141.147 32.7089 141.044 33.0264C140.942 33.344 140.805 33.6218 140.633 33.86C140.464 34.0948 140.259 34.2767 140.017 34.4057C139.776 34.5347 139.493 34.5992 139.169 34.5992C138.842 34.5992 138.547 34.5314 138.286 34.3958C138.028 34.2602 137.808 34.07 137.626 33.8252C137.447 33.5805 137.31 33.2927 137.214 32.9619C137.122 32.6312 137.075 32.2706 137.075 31.8803ZM138.39 31.7761V31.8803C138.39 32.1119 138.41 32.3285 138.45 32.5303C138.489 32.732 138.554 32.9107 138.643 33.0661C138.732 33.2183 138.847 33.3374 138.985 33.4234C139.128 33.5094 139.3 33.5523 139.501 33.5523C139.759 33.5523 139.971 33.4961 140.136 33.3837C140.305 33.2679 140.436 33.1108 140.528 32.9123C140.621 32.7105 140.681 32.484 140.707 32.2326V31.4536C140.694 31.2552 140.659 31.0716 140.603 30.9029C140.55 30.7342 140.474 30.5887 140.375 30.4663C140.279 30.3439 140.16 30.248 140.017 30.1785C139.875 30.1091 139.707 30.0743 139.511 30.0743C139.31 30.0743 139.138 30.119 138.995 30.2083C138.853 30.2943 138.737 30.415 138.648 30.5705C138.559 30.7259 138.493 30.9062 138.45 31.1113C138.41 31.3164 138.39 31.538 138.39 31.7761ZM151.295 30.764V33.5772C151.189 33.7128 151.022 33.86 150.794 34.0187C150.569 34.1775 150.275 34.3148 149.911 34.4305C149.547 34.543 149.1 34.5992 148.571 34.5992C148.111 34.5992 147.691 34.5232 147.311 34.371C146.93 34.2155 146.603 33.989 146.328 33.6913C146.054 33.3936 145.842 33.0297 145.693 32.5997C145.545 32.1697 145.47 31.6785 145.47 31.1262V30.6499C145.47 30.0975 145.54 29.6063 145.679 29.1763C145.821 28.7463 146.023 28.3824 146.284 28.0848C146.548 27.7871 146.864 27.5605 147.231 27.405C147.602 27.2496 148.015 27.1718 148.472 27.1718C149.084 27.1718 149.587 27.2727 149.98 27.4745C150.377 27.6763 150.681 27.9541 150.893 28.308C151.105 28.6586 151.237 29.0622 151.29 29.5186H149.96C149.924 29.2673 149.851 29.0473 149.742 28.8588C149.633 28.6669 149.477 28.5181 149.276 28.4122C149.077 28.3031 148.819 28.2485 148.502 28.2485C148.234 28.2485 147.997 28.3014 147.792 28.4073C147.587 28.5131 147.415 28.6669 147.276 28.8687C147.137 29.0704 147.031 29.3202 146.959 29.6179C146.889 29.9156 146.854 30.2562 146.854 30.6399V31.1262C146.854 31.5132 146.894 31.8572 146.973 32.1582C147.053 32.4559 147.167 32.7072 147.316 32.9123C147.468 33.1141 147.655 33.2679 147.876 33.3737C148.101 33.4763 148.356 33.5275 148.641 33.5275C148.899 33.5275 149.112 33.506 149.281 33.463C149.453 33.4167 149.59 33.3622 149.692 33.2993C149.795 33.2365 149.874 33.1753 149.931 33.1157V31.7612H148.497V30.764H151.295ZM154.897 34.5992C154.49 34.5992 154.125 34.5331 153.801 34.4008C153.476 34.2685 153.2 34.0849 152.972 33.85C152.747 33.6119 152.573 33.3357 152.451 33.0215C152.332 32.7039 152.272 32.3632 152.272 31.9994V31.8009C152.272 31.3875 152.332 31.0121 152.451 30.6747C152.57 30.334 152.739 30.0412 152.957 29.7965C153.175 29.5517 153.437 29.3632 153.741 29.2309C154.045 29.0986 154.381 29.0324 154.748 29.0324C155.129 29.0324 155.464 29.0969 155.755 29.2259C156.046 29.3516 156.29 29.5302 156.485 29.7617C156.68 29.9933 156.827 30.2711 156.926 30.5953C157.026 30.9161 157.075 31.2717 157.075 31.662V32.2127H152.868V31.3097H155.785V31.2105C155.779 31.0021 155.739 30.8119 155.666 30.6399C155.593 30.4646 155.481 30.3257 155.329 30.2232C155.177 30.1173 154.98 30.0644 154.738 30.0644C154.543 30.0644 154.373 30.1074 154.227 30.1934C154.085 30.2761 153.966 30.3952 153.87 30.5506C153.777 30.7028 153.708 30.8847 153.662 31.0964C153.615 31.3081 153.592 31.5429 153.592 31.8009V31.9994C153.592 32.2243 153.622 32.4327 153.681 32.6245C153.744 32.8164 153.835 32.9834 153.954 33.1257C154.077 33.2646 154.222 33.3737 154.391 33.4531C154.563 33.5292 154.758 33.5672 154.976 33.5672C155.251 33.5672 155.499 33.5143 155.721 33.4085C155.946 33.2993 156.141 33.1389 156.306 32.9272L156.966 33.6119C156.854 33.7773 156.701 33.936 156.51 34.0882C156.321 34.2403 156.093 34.3644 155.825 34.4603C155.557 34.5529 155.248 34.5992 154.897 34.5992ZM160.494 29.1316V30.0743H157.417V29.1316H160.494ZM158.241 27.8119H159.556V32.952C159.556 33.1108 159.577 33.2332 159.62 33.3192C159.663 33.4052 159.728 33.463 159.814 33.4928C159.9 33.5226 160.002 33.5375 160.121 33.5375C160.207 33.5375 160.287 33.5325 160.36 33.5226C160.432 33.5127 160.494 33.5027 160.543 33.4928L160.548 34.4752C160.439 34.5116 160.315 34.5413 160.176 34.5645C160.04 34.5877 159.887 34.5992 159.715 34.5992C159.42 34.5992 159.162 34.5496 158.941 34.4504C158.719 34.3478 158.547 34.1841 158.425 33.9592C158.302 33.731 158.241 33.43 158.241 33.0562V27.8119ZM169.801 27.276V34.5H168.432L165.361 29.4889V34.5H163.996V27.276H165.361L168.442 32.2921V27.276H169.801ZM170.858 31.8704V31.7662C170.858 31.3726 170.914 31.0104 171.027 30.6796C171.139 30.3456 171.303 30.0561 171.518 29.8114C171.733 29.5666 171.996 29.3764 172.307 29.2408C172.618 29.1019 172.972 29.0324 173.369 29.0324C173.772 29.0324 174.13 29.1019 174.44 29.2408C174.755 29.3764 175.019 29.5666 175.234 29.8114C175.449 30.0561 175.613 30.3456 175.725 30.6796C175.838 31.0104 175.894 31.3726 175.894 31.7662V31.8704C175.894 32.2607 175.838 32.6229 175.725 32.957C175.613 33.2877 175.449 33.5772 175.234 33.8252C175.019 34.07 174.756 34.2602 174.445 34.3958C174.134 34.5314 173.779 34.5992 173.379 34.5992C172.982 34.5992 172.626 34.5314 172.312 34.3958C171.998 34.2602 171.733 34.07 171.518 33.8252C171.303 33.5772 171.139 33.2877 171.027 32.957C170.914 32.6229 170.858 32.2607 170.858 31.8704ZM172.168 31.7662V31.8704C172.168 32.1052 172.191 32.3252 172.238 32.5303C172.284 32.7354 172.355 32.9156 172.451 33.0711C172.547 33.2265 172.671 33.3489 172.823 33.4382C172.978 33.5242 173.164 33.5672 173.379 33.5672C173.59 33.5672 173.772 33.5242 173.924 33.4382C174.077 33.3489 174.201 33.2265 174.297 33.0711C174.396 32.9156 174.469 32.7354 174.515 32.5303C174.561 32.3252 174.584 32.1052 174.584 31.8704V31.7662C174.584 31.5347 174.561 31.318 174.515 31.1162C174.469 30.9112 174.396 30.7309 174.297 30.5754C174.201 30.4167 174.075 30.2926 173.919 30.2033C173.767 30.1107 173.584 30.0644 173.369 30.0644C173.157 30.0644 172.975 30.1107 172.823 30.2033C172.671 30.2926 172.547 30.4167 172.451 30.5754C172.355 30.7309 172.284 30.9112 172.238 31.1162C172.191 31.318 172.168 31.5347 172.168 31.7662ZM179.387 29.1316V30.0743H176.311V29.1316H179.387ZM177.135 27.8119H178.449V32.952C178.449 33.1108 178.471 33.2332 178.514 33.3192C178.557 33.4052 178.621 33.463 178.707 33.4928C178.793 33.5226 178.896 33.5375 179.015 33.5375C179.101 33.5375 179.18 33.5325 179.253 33.5226C179.326 33.5127 179.387 33.5027 179.437 33.4928L179.442 34.4752C179.332 34.5116 179.208 34.5413 179.07 34.5645C178.934 34.5877 178.78 34.5992 178.608 34.5992C178.314 34.5992 178.056 34.5496 177.834 34.4504C177.612 34.3478 177.44 34.1841 177.318 33.9592C177.196 33.731 177.135 33.43 177.135 33.0562V27.8119ZM181.65 29.1316V34.5H180.335V29.1316H181.65ZM180.245 27.7275C180.245 27.5324 180.312 27.3703 180.444 27.2413C180.579 27.1123 180.761 27.0478 180.99 27.0478C181.218 27.0478 181.398 27.1123 181.53 27.2413C181.666 27.3703 181.734 27.5324 181.734 27.7275C181.734 27.9194 181.666 28.0798 181.53 28.2088C181.398 28.3378 181.218 28.4023 180.99 28.4023C180.761 28.4023 180.579 28.3378 180.444 28.2088C180.312 28.0798 180.245 27.9194 180.245 27.7275ZM185.103 33.5672C185.288 33.5672 185.453 33.5309 185.599 33.4581C185.744 33.3853 185.86 33.2828 185.946 33.1505C186.036 33.0182 186.083 32.8644 186.09 32.689H187.325C187.319 33.0529 187.216 33.3787 187.018 33.6665C186.819 33.9542 186.555 34.1825 186.224 34.3512C185.897 34.5165 185.529 34.5992 185.123 34.5992C184.709 34.5992 184.349 34.5298 184.041 34.3908C183.733 34.2519 183.477 34.0584 183.272 33.8103C183.07 33.5623 182.918 33.2745 182.815 32.947C182.716 32.6196 182.667 32.269 182.667 31.8952V31.7364C182.667 31.3627 182.716 31.0121 182.815 30.6846C182.918 30.3571 183.07 30.0694 183.272 29.8213C183.477 29.5732 183.733 29.3797 184.041 29.2408C184.349 29.1019 184.707 29.0324 185.118 29.0324C185.551 29.0324 185.931 29.1168 186.259 29.2854C186.59 29.4541 186.848 29.6923 187.033 29.9999C187.221 30.3075 187.319 30.6697 187.325 31.0865H186.09C186.083 30.8946 186.04 30.7226 185.961 30.5705C185.882 30.4183 185.769 30.2959 185.624 30.2033C185.478 30.1107 185.301 30.0644 185.093 30.0644C184.871 30.0644 184.686 30.1107 184.537 30.2033C184.392 30.2959 184.277 30.4233 184.195 30.5854C184.115 30.7441 184.059 30.9227 184.026 31.1212C183.996 31.3164 183.981 31.5214 183.981 31.7364V31.8952C183.981 32.1135 183.996 32.3219 184.026 32.5204C184.059 32.7188 184.115 32.8974 184.195 33.0562C184.277 33.2117 184.392 33.3357 184.537 33.4283C184.686 33.5209 184.875 33.5672 185.103 33.5672ZM190.61 34.5992C190.203 34.5992 189.838 34.5331 189.514 34.4008C189.189 34.2685 188.913 34.0849 188.685 33.85C188.46 33.6119 188.286 33.3357 188.164 33.0215C188.045 32.7039 187.985 32.3632 187.985 31.9994V31.8009C187.985 31.3875 188.045 31.0121 188.164 30.6747C188.283 30.334 188.452 30.0412 188.67 29.7965C188.888 29.5517 189.15 29.3632 189.454 29.2309C189.758 29.0986 190.094 29.0324 190.461 29.0324C190.842 29.0324 191.177 29.0969 191.468 29.2259C191.759 29.3516 192.003 29.5302 192.198 29.7617C192.393 29.9933 192.54 30.2711 192.639 30.5953C192.739 30.9161 192.788 31.2717 192.788 31.662V32.2127H188.581V31.3097H191.498V31.2105C191.492 31.0021 191.452 30.8119 191.379 30.6399C191.306 30.4646 191.194 30.3257 191.042 30.2232C190.89 30.1173 190.693 30.0644 190.451 30.0644C190.256 30.0644 190.086 30.1074 189.94 30.1934C189.798 30.2761 189.679 30.3952 189.583 30.5506C189.49 30.7028 189.421 30.8847 189.375 31.0964C189.328 31.3081 189.305 31.5429 189.305 31.8009V31.9994C189.305 32.2243 189.335 32.4327 189.394 32.6245C189.457 32.8164 189.548 32.9834 189.667 33.1257C189.79 33.2646 189.935 33.3737 190.104 33.4531C190.276 33.5292 190.471 33.5672 190.689 33.5672C190.964 33.5672 191.212 33.5143 191.434 33.4085C191.659 33.2993 191.854 33.1389 192.019 32.9272L192.679 33.6119C192.567 33.7773 192.414 33.936 192.223 34.0882C192.034 34.2403 191.806 34.3644 191.538 34.4603C191.27 34.5529 190.961 34.5992 190.61 34.5992ZM196.886 33.3589V26.8791H198.206V34.5H197.015L196.886 33.3589ZM193.438 31.8803V31.7761C193.438 31.366 193.484 30.9939 193.577 30.6598C193.673 30.3224 193.812 30.033 193.994 29.7915C194.176 29.5501 194.396 29.3632 194.654 29.2309C194.915 29.0986 195.211 29.0324 195.542 29.0324C195.863 29.0324 196.142 29.0969 196.38 29.2259C196.622 29.3549 196.827 29.5385 196.995 29.7766C197.167 30.0148 197.305 30.2976 197.407 30.6251C197.51 30.9492 197.584 31.3064 197.631 31.6967V31.9795C197.584 32.3599 197.51 32.7089 197.407 33.0264C197.305 33.344 197.167 33.6218 196.995 33.86C196.827 34.0948 196.622 34.2767 196.38 34.4057C196.139 34.5347 195.856 34.5992 195.532 34.5992C195.204 34.5992 194.91 34.5314 194.649 34.3958C194.391 34.2602 194.171 34.07 193.989 33.8252C193.81 33.5805 193.673 33.2927 193.577 32.9619C193.484 32.6312 193.438 32.2706 193.438 31.8803ZM194.753 31.7761V31.8803C194.753 32.1119 194.773 32.3285 194.812 32.5303C194.852 32.732 194.917 32.9107 195.006 33.0661C195.095 33.2183 195.209 33.3374 195.348 33.4234C195.491 33.5094 195.663 33.5523 195.864 33.5523C196.122 33.5523 196.334 33.4961 196.499 33.3837C196.668 33.2679 196.799 33.1108 196.891 32.9123C196.984 32.7105 197.043 32.484 197.07 32.2326V31.4536C197.057 31.2552 197.022 31.0716 196.966 30.9029C196.913 30.7342 196.837 30.5887 196.737 30.4663C196.642 30.3439 196.522 30.248 196.38 30.1785C196.238 30.1091 196.069 30.0743 195.874 30.0743C195.672 30.0743 195.5 30.119 195.358 30.2083C195.216 30.2943 195.1 30.415 195.011 30.5705C194.922 30.7259 194.855 30.9062 194.812 31.1113C194.773 31.3164 194.753 31.538 194.753 31.7761Z" fill="#1991EB"/>
</svg>
